<?xml version="1.0" encoding="UTF-8" standalone="no"?>
<!DOCTYPE svg PUBLIC "-//W3C//DTD SVG 1.1//EN" "http://www.w3.org/Graphics/SVG/1.1/DTD/svg11.dtd">
<svg width="100%" height="100%" viewBox="0 0 1024 804" version="1.1" xmlns="http://www.w3.org/2000/svg" xmlns:xlink="http://www.w3.org/1999/xlink" xml:space="preserve" xmlns:serif="http://www.serif.com/" style="fill-rule:evenodd;clip-rule:evenodd;stroke-linejoin:round;stroke-miterlimit:2;">
    <g transform="matrix(1,0,0,1,0,-62.9818)">
        <g id="white" transform="matrix(4.08564,0,0,4.08564,-38974.4,-5265.42)">
            <path d="M9656.78,1407.75L9656.78,1500.82L9563.71,1500.82L9563.71,1407.75L9656.78,1407.75ZM9790,1462.06L9790,1481.53L9770.53,1481.53L9770.53,1462.06L9790,1462.06ZM9714.87,1462.02L9673.43,1462.02C9671.05,1461.97 9668.76,1460.86 9667.35,1459C9665.23,1456.19 9665.42,1451.88 9667.8,1449.28C9669.22,1447.71 9671.3,1446.84 9673.43,1446.79L9707.25,1446.79L9707.25,1412.97L9707.26,1412.62C9707.28,1412.31 9707.28,1412.23 9707.32,1411.92C9707.79,1408.56 9710.73,1405.7 9714.16,1405.38C9714.84,1405.32 9715,1405.36 9715.22,1405.36C9715.53,1405.38 9715.61,1405.38 9715.92,1405.42C9719.27,1405.89 9722.13,1408.81 9722.45,1412.27C9722.48,1412.58 9722.48,1412.66 9722.48,1412.97L9722.48,1454.41C9722.48,1454.72 9722.48,1454.8 9722.45,1455.11C9722.13,1458.61 9719.13,1461.66 9715.57,1461.99C9715.26,1462.02 9715.18,1462.02 9714.87,1462.02ZM9779.39,1406.92L9734.37,1406.92L9734.37,1451.94L9779.39,1451.94L9779.39,1406.92ZM9759.48,1304.18L9759.48,1397.25L9666.41,1397.25L9666.41,1304.18L9759.48,1304.18ZM9615.23,1354.77L9615.23,1388.59L9615.23,1388.95C9615,1392.16 9612.73,1395.06 9609.7,1395.92C9606.31,1396.88 9602.37,1395.15 9600.8,1391.99C9600.27,1390.94 9600.03,1389.77 9600,1388.59L9600,1347.16C9600.01,1346.84 9600,1346.77 9600.03,1346.45C9600.35,1342.96 9603.35,1339.9 9606.91,1339.57C9607.23,1339.54 9607.3,1339.55 9607.62,1339.54L9646.62,1339.54C9646.73,1339.54 9646.85,1339.55 9646.97,1339.55C9651,1339.83 9654.41,1343.47 9654.23,1347.51C9654.05,1351.35 9650.66,1354.68 9646.62,1354.77L9615.23,1354.77ZM9588.05,1356.99L9588.05,1395.94L9549.1,1395.94L9549.1,1356.99L9588.05,1356.99ZM9558.84,1327.73L9558.84,1347.2L9539.37,1347.2L9539.37,1327.73L9558.84,1327.73Z" style="fill:white;"/>
        </g>
    </g>
</svg>
