<?xml version="1.0" encoding="utf-8"?>
<!-- Generator: Adobe Illustrator 22.1.0, SVG Export Plug-In . SVG Version: 6.00 Build 0)  -->
<svg version="1.1" id="Ebene_1" xmlns="http://www.w3.org/2000/svg" xmlns:xlink="http://www.w3.org/1999/xlink" x="0px" y="0px"
	 viewBox="0 0 362.6 283.5" style="enable-background:new 0 0 362.6 283.5;" xml:space="preserve">
<style type="text/css">
	.st0{fill:none;}
	.st1{fill:#FFFFFF;}
</style>
<g id="Ebene_2_1_">
	<rect y="0" class="st0" width="362.6" height="283.5"/>
</g>
<g id="Ebene_1_1_" xmlns:serif="http://www.serif.com/">
	<g transform="matrix(1,0,0,1,0,-62.9818)">
		<g id="white" transform="matrix(4.08564,0,0,4.08564,-38974.4,-5265.42)">
			<path class="st1" d="M9581.2,1340.3v29.5h-29.5v-29.5H9581.2z M9623.4,1357.6v6.2h-6.2v-6.2H9623.4z M9599.6,1357.5h-13.1
				c-0.8,0-1.5-0.4-1.9-1c-0.7-0.9-0.6-2.3,0.1-3.1c0.5-0.5,1.1-0.8,1.8-0.8h10.7V1342v-0.1c0-0.1,0-0.1,0-0.2
				c0.1-1.1,1.1-2,2.2-2.1c0.2,0,0.3,0,0.3,0c0.1,0,0.1,0,0.2,0c1.1,0.1,2,1.1,2.1,2.2c0,0.1,0,0.1,0,0.2v13.1c0,0.1,0,0.1,0,0.2
				c-0.1,1.1-1.1,2.1-2.2,2.2C9599.7,1357.5,9599.7,1357.5,9599.6,1357.5z M9620.1,1340.1h-14.3v14.3h14.3V1340.1z M9613.7,1307.5
				v29.5h-29.5v-29.5H9613.7z M9568,1323.5v10.7v0.1c-0.1,1-0.8,1.9-1.8,2.2c-1.1,0.3-2.3-0.2-2.8-1.2c-0.2-0.3-0.2-0.7-0.3-1.1
				v-13.1c0-0.1,0-0.1,0-0.2c0.1-1.1,1.1-2.1,2.2-2.2c0.1,0,0.1,0,0.2,0h12.4h0.1c1.3,0.1,2.4,1.2,2.3,2.5c-0.1,1.2-1.1,2.3-2.4,2.3
				L9568,1323.5L9568,1323.5z M9559.4,1324.2v12.4H9547v-12.4H9559.4z M9550.1,1314.9v6.2h-6.2v-6.2H9550.1z"/>
		</g>
	</g>
</g>
</svg>
